# Blender 5.1.2
# www.blender.org
mtllib 3dmodelanime.mtl
o Cube.001
v -0.273242 0.162544 -0.199678
v -0.349436 0.514540 -0.048370
v -0.236699 0.114027 -0.522063
v -0.227007 0.486394 -0.620111
v 0.153522 0.162544 -0.199678
v 0.229716 0.514540 -0.048370
v 0.116979 0.114027 -0.522063
v 0.107286 0.486394 -0.620111
v -0.212550 0.104401 -0.676970
v -0.333987 0.545444 -0.791607
v 0.123730 0.104401 -0.676970
v 0.245166 0.545444 -0.791607
v -0.338578 0.028947 -0.979949
v -0.408201 0.517619 -0.853366
v 0.255527 0.028947 -0.979949
v 0.319380 0.517619 -0.853366
v -0.352891 0.087768 -1.070903
v -0.424827 0.405387 -1.009347
v 0.248434 0.087768 -1.070903
v 0.302754 0.405387 -1.009347
v -0.212898 0.132483 -0.397677
v -0.214409 0.472845 -0.344465
v 0.093177 0.132483 -0.397677
v 0.094689 0.472845 -0.344465
v -0.059860 0.114027 -0.522063
v -0.059860 0.486394 -0.620111
v -0.046981 0.175195 0.057979
v -0.059860 0.430928 0.208167
v -0.044410 0.055752 -0.676970
v -0.042622 0.545444 -0.710735
v -0.044410 -0.015042 -1.067856
v -0.044410 0.585459 -0.833832
v -0.044410 0.050595 -1.191503
v -0.044410 0.405387 -1.091209
v -0.059860 0.472845 -0.344465
v -0.059860 0.132483 -0.397677
v -0.349436 0.305118 -0.171055
v -0.311409 0.300210 -0.571087
v 0.191689 0.300210 -0.571087
v 0.229716 0.305118 -0.171055
v -0.333987 0.279884 -0.734288
v 0.245166 0.279884 -0.734288
v -0.333987 0.258242 -0.875968
v 0.245166 0.258242 -0.875968
v -0.340663 0.089521 -1.124691
v 0.238489 0.089521 -1.124691
v 0.172730 0.302664 -0.371071
v -0.292451 0.302664 -0.371071
v -0.044410 0.089521 -1.245291
v -0.059860 0.221506 0.085482
v -0.349436 0.409829 -0.109712
v -0.311409 0.393302 -0.595599
v 0.191689 0.393302 -0.595599
v 0.229716 0.409829 -0.109712
v -0.333987 0.412664 -0.762948
v 0.245166 0.412664 -0.762948
v -0.371094 0.387930 -0.864667
v 0.282273 0.387930 -0.864667
v -0.569095 0.247454 -1.051278
v 0.480274 0.247454 -1.051278
v 0.172730 0.387754 -0.357768
v -0.292451 0.387754 -0.357768
v -0.044410 0.165223 -1.321827
v -0.059860 0.326217 0.146825
vn -0.7350 0.6745 0.0703
vn -0.1369 -0.9711 0.1953
vn 0.8140 0.4693 -0.3422
vn -0.6732 -0.3738 0.6381
vn 0.0417 -0.9935 0.1059
vn 0.1697 0.9851 0.0273
vn 0.9003 -0.2850 0.3291
vn 0.0797 0.8903 0.4483
vn -0.8202 0.4022 0.4067
vn 0.8842 -0.4187 0.2068
vn -0.2752 -0.8395 -0.4685
vn -0.1490 -0.9618 0.2298
vn 0.1200 0.9864 0.1121
vn -0.8125 -0.0766 0.5779
vn 0.2433 0.6195 -0.7464
vn 0.1275 0.8074 -0.5761
vn -0.8929 0.2654 0.3637
vn 0.9919 0.1032 -0.0736
vn -0.0000 0.9988 0.0491
vn -0.0000 -0.9892 0.1468
vn 0.7350 0.6745 0.0703
vn -0.8140 0.4693 -0.3422
vn -0.1218 0.8127 -0.5698
vn -0.2402 0.6061 -0.7582
vn -0.1196 0.9862 0.1142
vn 0.1470 -0.9619 0.2307
vn 0.2846 -0.8252 -0.4880
vn -0.0760 0.8991 0.4311
vn -0.1697 0.9851 0.0273
vn -0.0400 -0.9934 0.1077
vn 0.6732 -0.3738 0.6381
vn 0.1362 -0.9656 0.2214
vn 0.6881 -0.4088 0.5995
vn -0.2020 -0.9083 -0.3664
vn -0.8869 -0.4013 -0.2287
vn 0.9113 -0.3854 0.1450
vn 0.4487 -0.6236 0.6401
vn -0.9971 0.0637 0.0410
vn 0.2106 -0.9078 -0.3627
vn -0.8999 -0.2966 0.3198
vn 0.9490 0.0722 0.3069
vn -0.8832 -0.4673 0.0396
vn 0.9767 -0.1266 0.1730
vn -0.6511 -0.4814 0.5868
vn 0.8869 -0.4013 -0.2287
vn -0.9113 -0.3854 0.1450
vn 0.8125 -0.0766 0.5779
vn 0.7535 0.4037 0.5189
vn 0.8971 0.4054 0.1759
vn -0.4237 -0.4250 -0.7999
vn -0.9631 0.0985 -0.2504
vn 0.9963 0.0054 0.0863
vn -0.4550 -0.6109 0.6479
vn 0.4258 -0.4512 -0.7843
vn -0.9767 -0.1266 0.1730
vn -0.9903 0.0318 0.1352
vn 0.9631 0.0985 -0.2504
vn -0.9963 0.0054 0.0863
vt 0.562500 0.125000
vt 0.625000 0.125000
vt 0.625000 0.250000
vt 0.562500 0.250000
vt 0.250000 0.500000
vt 0.125000 0.500000
vt 0.562500 0.625000
vt 0.625000 0.625000
vt 0.625000 0.750000
vt 0.562500 0.750000
vt 0.562500 0.875000
vt 0.625000 0.875000
vt 0.625000 1.000000
vt 0.562500 1.000000
vt 0.250000 0.625000
vt 0.375000 0.625000
vt 0.375000 0.750000
vt 0.250000 0.750000
vt 0.750000 0.625000
vt 0.875000 0.625000
vt 0.875000 0.750000
vt 0.750000 0.750000
vt 0.500000 0.500000
vt 0.375000 0.500000
vt 0.750000 0.500000
vt 0.625000 0.500000
vt 0.562500 0.250000
vt 0.562500 0.250000
vt 0.562500 0.375000
vt 0.625000 0.375000
vt 0.562500 0.500000
vt 0.875000 0.500000
vt 0.562500 0.000000
vt 0.625000 0.000000
vt 0.125000 0.625000
vt 0.125000 0.750000
vt 0.500000 0.750000
vt 0.500000 0.875000
vt 0.375000 0.875000
vt 0.375000 0.250000
vt 0.500000 0.250000
vt 0.500000 0.375000
vt 0.375000 0.375000
vt 0.375000 0.000000
vt 0.500000 0.000000
vt 0.500000 0.125000
vt 0.375000 0.125000
vt 0.500000 0.625000
vt 0.562500 0.500000
vt 0.500000 1.000000
vt 0.375000 1.000000
s 0
f 62/1/1 22/2/1 4/3/1 52/4/1
f 25/5/2 3/6/2 9/6/2 29/5/2
f 61/7/3 24/8/3 6/9/3 54/10/3
f 64/11/4 28/12/4 2/13/4 51/14/4
f 36/15/5 23/16/5 5/17/5 27/18/5
f 35/19/6 22/20/6 2/21/6 28/22/6
f 42/23/7 11/24/7 15/24/7 44/23/7
f 26/25/8 8/26/8 12/26/8 30/25/8
f 52/4/9 4/3/9 10/3/9 55/27/9
f 39/23/10 7/24/10 11/24/10 42/23/10
f 31/5/11 13/6/11 17/6/11 33/5/11
f 29/5/12 9/6/12 13/6/12 31/5/12
f 30/25/13 12/26/13 16/26/13 32/25/13
f 55/27/14 10/3/14 14/3/14 57/28/14
f 63/29/15 34/30/15 20/26/15 60/31/15
f 32/25/16 16/26/16 20/26/16 34/25/16
f 57/28/17 14/3/17 18/3/17 59/4/17
f 44/23/18 15/24/18 19/24/18 46/23/18
f 26/25/19 4/32/19 22/20/19 35/19/19
f 25/5/20 7/24/20 23/16/20 36/15/20
f 53/31/21 8/26/21 24/8/21 61/7/21
f 51/33/22 2/34/22 22/2/22 62/1/22
f 3/6/20 25/5/20 36/15/20 21/35/20
f 8/26/19 26/25/19 35/19/19 24/8/19
f 14/32/23 32/25/23 34/25/23 18/32/23
f 59/4/24 18/3/24 34/30/24 63/29/24
f 10/32/25 30/25/25 32/25/25 14/32/25
f 11/24/26 29/5/26 31/5/26 15/24/26
f 15/24/27 31/5/27 33/5/27 19/24/27
f 4/32/28 26/25/28 30/25/28 10/32/28
f 24/8/29 35/19/29 28/22/29 6/9/29
f 21/35/30 36/15/30 27/18/30 1/36/30
f 54/10/31 6/9/31 28/12/31 64/11/31
f 7/24/32 25/5/32 29/5/32 11/24/32
f 5/17/33 40/37/33 50/38/33 27/39/33
f 17/40/34 45/41/34 49/42/34 33/43/34
f 1/44/35 37/45/35 48/46/35 21/47/35
f 7/24/36 39/23/36 47/48/36 23/16/36
f 58/49/37 44/23/37 46/23/37 60/31/37
f 13/40/38 43/41/38 45/41/38 17/40/38
f 33/43/39 49/42/39 46/23/39 19/24/39
f 9/40/40 41/41/40 43/41/40 13/40/40
f 53/31/41 39/23/41 42/23/41 56/49/41
f 3/40/42 38/41/42 41/41/42 9/40/42
f 56/49/43 42/23/43 44/23/43 58/49/43
f 27/39/44 50/38/44 37/50/44 1/51/44
f 23/16/45 47/48/45 40/37/45 5/17/45
f 21/47/46 48/46/46 38/41/46 3/40/46
f 12/26/47 56/49/47 58/49/47 16/26/47
f 8/26/48 53/31/48 56/49/48 12/26/48
f 16/26/49 58/49/49 60/31/49 20/26/49
f 40/37/31 54/10/31 64/11/31 50/38/31
f 45/41/50 59/4/50 63/29/50 49/42/50
f 37/45/51 51/33/51 62/1/51 48/46/51
f 39/23/52 53/31/52 61/7/52 47/48/52
f 43/41/53 57/28/53 59/4/53 45/41/53
f 49/42/54 63/29/54 60/31/54 46/23/54
f 41/41/55 55/27/55 57/28/55 43/41/55
f 38/41/56 52/4/56 55/27/56 41/41/56
f 50/38/4 64/11/4 51/14/4 37/50/4
f 47/48/57 61/7/57 54/10/57 40/37/57
f 48/46/58 62/1/58 52/4/58 38/41/58
o Cube.002
v -0.148490 0.096649 -1.164864
v -0.148490 0.290972 -1.164864
v -0.164544 0.096650 -1.633388
v -0.106783 0.290972 -1.471942
v 0.045832 0.096649 -1.164864
v 0.045832 0.290972 -1.164864
v 0.079001 0.096650 -1.633388
v 0.021241 0.290972 -1.471942
vn -0.9865 0.1602 -0.0326
vn -0.0000 0.6390 -0.7692
vn 0.9897 0.1425 0.0109
vn -0.0000 -0.0000 1.0000
vn -0.0000 -1.0000 -0.0000
vn -0.0000 1.0000 -0.0000
vt 0.375000 0.000000
vt 0.625000 0.000000
vt 0.625000 0.250000
vt 0.375000 0.250000
vt 0.625000 0.500000
vt 0.375000 0.500000
vt 0.625000 0.750000
vt 0.375000 0.750000
vt 0.625000 1.000000
vt 0.375000 1.000000
vt 0.125000 0.500000
vt 0.125000 0.750000
vt 0.875000 0.500000
vt 0.875000 0.750000
s 0
f 65/52/59 66/53/59 68/54/59 67/55/59
f 67/55/60 68/54/60 72/56/60 71/57/60
f 71/57/61 72/56/61 70/58/61 69/59/61
f 69/59/62 70/58/62 66/60/62 65/61/62
f 67/62/63 71/57/63 69/59/63 65/63/63
f 72/56/64 68/64/64 66/65/64 70/58/64
o Cube.003
v 0.180345 0.320323 -1.885201
v 0.180345 0.048147 -1.885201
v 0.085919 0.341068 -1.372301
v 0.178843 0.161765 -1.506320
v -0.273128 0.320323 -1.885201
v -0.273128 0.048147 -1.885201
v -0.189110 0.341068 -1.372301
v -0.244892 0.150945 -1.519892
v -0.048073 0.477141 -1.280275
v -0.047893 0.083169 -1.493466
v -0.047893 0.376847 -1.964928
v -0.047893 0.083992 -1.973526
v 0.134625 0.410409 -1.555562
v 0.178843 -0.023121 -1.608482
v -0.230412 0.410409 -1.555562
v -0.274630 -0.023121 -1.608482
v -0.047893 -0.023121 -1.608482
v -0.047893 0.528386 -1.570577
v 0.178843 0.039984 -1.555359
v -0.236400 0.360979 -1.478894
v 0.140254 0.360979 -1.478894
v -0.274630 0.039984 -1.555359
v -0.047893 0.030641 -1.555143
v -0.048073 0.540412 -1.440108
v -0.236400 0.412392 -1.550777
v 0.140254 0.400676 -1.560941
v -0.047893 0.563630 -1.487525
v 0.152432 0.470456 -1.745803
v -0.274630 -0.023121 -1.740835
v -0.047893 -0.074171 -1.820156
v -0.046159 0.548224 -1.737198
v 0.178843 -0.023121 -1.740835
v -0.248086 0.470456 -1.745803
v 0.166889 0.395390 -1.831698
v -0.273879 0.012513 -1.813018
v -0.047893 -0.023265 -1.900133
v -0.047893 0.461566 -1.908773
v 0.179594 0.012513 -1.813018
v -0.261175 0.395390 -1.831698
v 0.206782 0.164854 -1.885201
v -0.299333 0.164854 -1.885201
v -0.047951 0.182872 -1.994411
v -0.301009 0.174264 -1.608482
v 0.205106 0.174264 -1.608482
v 0.211500 0.204287 -1.759515
v -0.307403 0.204287 -1.759515
v 0.198854 0.184571 -1.822358
v -0.293082 0.184571 -1.822358
v 0.159733 0.209815 -1.426223
v -0.244892 0.209815 -1.403196
v -0.047893 0.300761 -1.300150
v -0.274630 0.177973 -1.555359
v 0.178843 0.177973 -1.513479
vn 0.9948 0.0411 0.0931
vn -0.1722 -0.7352 0.6556
vn -0.9877 -0.1546 0.0220
vn 0.3624 -0.1337 -0.9224
vn -0.4132 0.5361 -0.7361
vn 0.2600 -0.6898 -0.6757
vn -0.2629 -0.6879 -0.6765
vn 0.4098 0.5394 -0.7356
vn -0.3665 -0.1338 -0.9207
vn 0.2009 -0.6956 0.6898
vn 0.6880 0.6523 0.3180
vn -0.0142 -0.6734 0.7392
vn 0.0142 -0.6734 0.7392
vn -0.6639 0.6344 0.3959
vn -0.9687 0.0783 0.2355
vn 0.9905 -0.1370 0.0078
vn -0.8302 -0.2842 0.4795
vn -0.7186 0.6173 0.3203
vn 0.1273 -0.5318 0.8373
vn -0.1427 -0.4863 0.8621
vn 0.7250 0.6015 0.3356
vn 0.9773 0.0890 0.1921
vn 0.5467 0.7830 -0.2968
vn -0.5156 0.7757 -0.3639
vn 0.9855 -0.1353 -0.1028
vn 0.4429 0.8695 0.2189
vn -0.0854 -0.9856 0.1462
vn 0.0854 -0.9856 0.1462
vn -0.4403 0.8718 0.2148
vn -0.9905 -0.1376 0.0078
vn 0.9869 -0.1547 0.0452
vn 0.3582 0.7985 -0.4839
vn -0.3293 -0.8201 -0.4680
vn 0.3278 -0.8219 -0.4658
vn -0.3569 0.8002 -0.4821
vn -0.9826 -0.1367 -0.1258
vn -0.9740 0.1874 -0.1275
vn 0.9860 0.1585 0.0521
vn -0.9640 0.2322 0.1293
vn 0.9764 0.1873 -0.1075
vn 0.9642 0.2315 0.1295
vn -0.3807 0.1061 -0.9186
vn 0.3764 0.1061 -0.9204
vn -0.9872 0.1573 0.0263
vn -0.9435 0.1893 0.2721
vn 0.4933 -0.0889 0.8653
vn -0.4679 -0.0609 0.8817
vn 0.9140 0.2334 0.3319
vt 0.500000 0.187500
vt 0.625000 0.187500
vt 0.625000 0.250000
vt 0.500000 0.250000
vt 0.500000 0.375000
vt 0.625000 0.375000
vt 0.625000 0.500000
vt 0.500000 0.500000
vt 0.500000 0.718750
vt 0.625000 0.718750
vt 0.625000 0.750000
vt 0.500000 0.750000
vt 0.500000 0.875000
vt 0.625000 0.875000
vt 0.625000 1.000000
vt 0.500000 1.000000
vt 0.250000 0.718750
vt 0.375000 0.718750
vt 0.375000 0.750000
vt 0.250000 0.750000
vt 0.750000 0.718750
vt 0.875000 0.718750
vt 0.875000 0.750000
vt 0.750000 0.750000
vt 0.125000 0.718750
vt 0.125000 0.750000
vt 0.125000 0.562500
vt 0.250000 0.562500
vt 0.250000 0.580871
vt 0.125000 0.593437
vt 0.625000 0.562500
vt 0.750000 0.562500
vt 0.750000 0.625000
vt 0.625000 0.625000
vt 0.875000 0.562500
vt 0.875000 0.625000
vt 0.375000 0.562500
vt 0.375000 0.587063
vt 0.500000 0.562500
vt 0.500000 0.625000
vt 0.375000 0.625000
vt 0.500000 0.062500
vt 0.625000 0.062500
vt 0.625000 0.125000
vt 0.500000 0.125000
vt 0.250000 0.500000
vt 0.375000 0.500000
vt 0.750000 0.500000
vt 0.875000 0.500000
vt 0.125000 0.500000
vt 0.375000 0.125000
vt 0.375000 0.187500
vt 0.375000 0.156563
vt 0.250000 0.625000
vt 0.125000 0.625000
vt 0.500000 0.031250
vt 0.625000 0.031250
vt 0.250000 0.687500
vt 0.125000 0.687500
vt 0.750000 0.687500
vt 0.625000 0.687500
vt 0.875000 0.687500
vt 0.375000 0.687500
vt 0.500000 0.687500
vt 0.500000 0.000000
vt 0.625000 0.000000
vt 0.375000 0.000000
vt 0.375000 0.031250
vt 0.375000 0.062500
vt 0.375000 0.875000
vt 0.375000 1.000000
vt 0.375000 0.250000
vt 0.375000 0.375000
s 0
f 125/66/65 121/69/65 76/68/65 91/67/65
f 123/70/66 122/73/66 80/72/66 82/71/66
f 120/74/67 113/77/67 78/76/67 107/75/67
f 114/78/68 112/81/68 74/80/68 84/79/68
f 109/82/69 83/85/69 77/84/69 111/83/69
f 108/86/70 84/89/70 74/88/70 110/87/70
f 107/75/71 78/76/71 84/89/71 108/86/71
f 106/90/72 73/91/72 83/85/72 109/82/72
f 113/77/73 114/78/73 84/79/73 78/76/73
f 121/69/74 123/70/74 82/71/74 76/68/74
f 93/92/75 98/95/75 99/94/75 96/93/75
f 94/96/76 88/99/76 89/98/76 95/97/76
f 95/97/77 89/98/77 86/101/77 91/100/77
f 96/93/78 99/94/78 97/103/78 92/102/78
f 92/102/79 97/103/79 87/106/79 115/105/79 88/99/79 94/96/79 124/104/79
f 117/107/80 116/110/80 86/109/80 104/108/80
f 122/73/81 124/104/81 94/96/81 80/72/81
f 81/111/82 96/93/82 92/102/82 79/112/82
f 82/113/83 95/97/83 91/100/83 76/114/83
f 80/72/84 94/96/84 95/97/84 82/113/84
f 75/115/85 93/92/85 96/93/85 81/111/85
f 85/116/86 98/118/86 93/117/86 125/66/86 91/67/86 86/109/86 116/110/86
f 98/95/87 85/120/87 90/119/87 99/94/87
f 99/94/88 90/119/88 87/106/88 97/103/88
f 119/121/89 117/107/89 104/108/89 110/122/89
f 85/120/90 100/124/90 103/123/90 90/119/90
f 88/99/91 101/126/91 102/125/91 89/98/91
f 89/98/92 102/125/92 104/127/92 86/101/92
f 90/119/93 103/123/93 105/128/93 87/106/93
f 115/105/94 118/129/94 101/126/94 88/99/94
f 112/130/95 119/121/95 110/122/95 74/131/95
f 100/124/96 106/90/96 109/82/96 103/123/96
f 101/126/97 107/75/97 108/86/97 102/125/97
f 102/125/98 108/86/98 110/87/98 104/127/98
f 103/123/99 109/82/99 111/83/99 105/128/99
f 118/129/100 120/74/100 107/75/100 101/126/100
f 105/128/101 111/83/101 120/74/101 118/129/101
f 73/132/102 106/133/102 119/121/102 112/130/102
f 87/106/103 105/128/103 118/129/103 115/105/103
f 106/133/104 100/134/104 117/107/104 119/121/104
f 100/134/105 85/116/105 116/110/105 117/107/105
f 77/84/106 83/135/106 114/78/106 113/77/106
f 83/135/107 73/136/107 112/81/107 114/78/107
f 111/83/108 77/84/108 113/77/108 120/74/108
f 79/112/109 92/102/109 124/104/109 122/73/109
f 75/137/110 81/138/110 123/70/110 121/69/110
f 81/138/111 79/112/111 122/73/111 123/70/111
f 93/117/112 75/137/112 121/69/112 125/66/112
o Cube.005
v -0.571113 0.180547 -0.288919
v -0.549047 0.316515 -0.233807
v -0.583533 0.168746 -0.986657
v -0.583533 0.417682 -0.964286
v -0.431432 0.180547 -0.288919
v -0.453498 0.316515 -0.233807
v -0.431432 0.198394 -0.887108
v -0.431432 0.373809 -0.871344
v -0.571113 0.166021 -0.526869
v -0.549047 0.341435 -0.511105
v -0.431432 0.166021 -0.526869
v -0.453498 0.341435 -0.511105
v -0.549047 0.357622 -0.691225
v -0.431432 0.182207 -0.706989
v -0.571113 0.182207 -0.706989
v -0.453498 0.357622 -0.691225
v -0.571113 0.195316 -0.453264
v -0.453498 0.331285 -0.398152
v -0.549047 0.331285 -0.398152
v -0.431432 0.194243 -0.441323
v -0.571113 0.365716 -0.781284
v -0.431432 0.190301 -0.797048
v -0.571113 0.190301 -0.797048
v -0.431432 0.365716 -0.781284
v -0.571113 0.228808 -0.241689
v -0.634017 0.290208 -0.942014
v -0.431432 0.286102 -0.879226
v -0.431432 0.228808 -0.241689
v -0.431432 0.253728 -0.518987
v -0.571113 0.253728 -0.518987
v -0.431432 0.269915 -0.699107
v -0.616916 0.269915 -0.699107
v -0.571113 0.243577 -0.406034
v -0.431432 0.237541 -0.338868
v -0.431432 0.278008 -0.789166
v -0.616916 0.278008 -0.789166
vn -0.8974 0.4121 0.1576
vn 0.3803 -0.1503 -0.9126
vn 0.9700 0.2421 0.0218
vn -0.0000 -0.0895 0.9960
vn -0.0000 -0.9960 -0.0895
vn -0.0000 0.9960 0.0895
vn -0.9700 0.2421 0.0218
vn 0.9850 0.1122 0.1308
vn -0.8850 0.4401 0.1521
vn -0.0181 -0.9403 0.3398
vn 0.0794 0.9743 0.2107
vn 0.0861 -0.9953 0.0441
vn 1.0000 -0.0000 -0.0000
vn -0.8358 0.5282 0.1499
vn -0.8872 -0.4596 -0.0413
vn -1.0000 -0.0000 -0.0000
vn -0.9606 -0.2597 0.0988
vn -0.0000 -0.6994 0.7147
vn 0.3771 0.3102 -0.8727
vn -0.8961 -0.4349 0.0891
vt 0.500000 0.218750
vt 0.625000 0.218750
vt 0.625000 0.250000
vt 0.500000 0.250000
vt 0.625000 0.500000
vt 0.500000 0.500000
vt 0.500000 0.687500
vt 0.625000 0.687500
vt 0.625000 0.750000
vt 0.500000 0.750000
vt 0.625000 1.000000
vt 0.500000 1.000000
vt 0.125000 0.687500
vt 0.375000 0.687500
vt 0.375000 0.750000
vt 0.125000 0.750000
vt 0.875000 0.687500
vt 0.875000 0.750000
vt 0.625000 0.562500
vt 0.875000 0.562500
vt 0.875000 0.625000
vt 0.625000 0.625000
vt 0.125000 0.562500
vt 0.375000 0.562500
vt 0.375000 0.625000
vt 0.125000 0.625000
vt 0.500000 0.562500
vt 0.500000 0.625000
vt 0.500000 0.062500
vt 0.625000 0.062500
vt 0.625000 0.125000
vt 0.500000 0.125000
vt 0.500000 0.531250
vt 0.625000 0.531250
vt 0.125000 0.531250
vt 0.375000 0.531250
vt 0.875000 0.531250
vt 0.625000 0.187500
vt 0.500000 0.187500
vt 0.500000 0.000000
vt 0.625000 0.000000
vt 0.875000 0.500000
vt 0.125000 0.500000
vt 0.375000 0.500000
vt 0.375000 0.187500
vt 0.375000 0.218750
vt 0.375000 0.000000
vt 0.375000 0.062500
vt 0.375000 0.125000
vt 0.375000 1.000000
vt 0.375000 0.250000
s 0
f 161/139/113 146/140/113 129/141/113 151/142/113
f 151/142/114 129/141/114 133/143/114 152/144/114
f 159/145/115 143/146/115 131/147/115 153/148/115
f 153/148/116 131/147/116 127/149/116 150/150/116
f 142/151/117 145/152/117 130/153/117 126/154/117
f 143/146/118 144/155/118 127/156/118 131/147/118
f 141/157/118 138/158/118 135/159/118 137/160/118
f 140/161/117 139/162/117 136/163/117 134/164/117
f 156/165/115 141/157/115 137/160/115 154/166/115
f 158/167/119 144/168/119 135/169/119 155/170/119
f 160/171/120 149/172/120 141/157/120 156/165/120
f 148/173/117 147/174/117 139/162/117 140/161/117
f 149/172/118 146/175/118 138/158/118 141/157/118
f 155/170/121 135/169/121 138/176/121 157/177/121
f 150/178/119 127/179/119 144/168/119 158/167/119
f 137/160/118 135/159/118 144/155/118 143/146/118
f 134/164/122 136/163/122 145/152/122 142/151/122
f 154/166/115 137/160/115 143/146/115 159/145/115
f 133/143/123 129/180/123 146/175/123 149/172/123
f 128/181/124 132/182/124 147/174/124 148/173/124
f 152/144/125 133/143/125 149/172/125 160/171/125
f 157/177/126 138/176/126 146/140/126 161/139/126
f 140/183/127 157/177/127 161/139/127 148/184/127
f 132/182/125 152/144/125 160/171/125 147/174/125
f 136/163/125 154/166/125 159/145/125 145/152/125
f 126/185/128 150/178/128 158/167/128 142/186/128
f 134/187/129 155/170/129 157/177/129 140/183/129
f 147/174/125 160/171/125 156/165/125 139/162/125
f 142/186/128 158/167/128 155/170/128 134/187/128
f 139/162/125 156/165/125 154/166/125 136/163/125
f 130/153/130 153/148/130 150/150/130 126/188/130
f 145/152/125 159/145/125 153/148/125 130/153/125
f 128/189/131 151/142/131 152/144/131 132/182/131
f 148/184/132 161/139/132 151/142/132 128/189/132
o Cube.006
v -0.246753 0.434745 2.265626
v -0.161006 0.275215 2.295309
v -0.174603 0.393141 2.436677
v -0.120006 0.188372 2.441525
v -0.292843 0.434745 2.272499
v -0.292843 0.233611 2.312718
v -0.329423 0.393141 2.434831
v -0.355362 0.268552 2.439680
v -0.243782 0.430635 1.298061
v -0.158034 0.118688 1.391336
v -0.332333 0.385059 1.313796
v -0.394805 0.118688 1.411329
v -0.226085 0.671232 2.321575
v -0.205971 0.671232 2.404502
v -0.290763 0.671232 2.327037
v -0.309538 0.671232 2.399821
v -0.309538 0.520734 2.399821
v -0.167913 0.455708 1.113689
v -0.167913 0.192115 1.148174
v -0.338838 0.446184 1.168056
v -0.338838 0.192115 1.282548
v -0.076294 0.446862 0.225695
v -0.076294 0.206925 0.435874
v -0.376843 0.521481 -0.030852
v -0.450191 0.155905 0.132787
v -0.183439 0.267622 1.915020
v -0.245268 0.417398 1.793280
v -0.281352 0.371822 1.804584
v -0.320796 0.267622 1.914124
v -0.246010 0.417050 2.029796
v -0.295305 0.301530 2.230136
v -0.184182 0.301530 2.233248
v -0.255861 0.371474 2.038885
v -0.382227 0.433140 0.877857
v -0.382227 0.183807 0.983523
v -0.148398 0.204633 1.010143
v -0.148398 0.457853 0.937136
vn 0.9687 -0.0873 0.2323
vn -0.0035 0.0291 0.9996
vn -0.9458 0.0306 -0.3233
vn -0.1106 -0.9748 -0.1939
vn 0.9217 0.3369 -0.1923
vn 0.9544 0.2983 -0.0145
vn -0.9871 0.0575 -0.1497
vn -0.9493 0.3046 0.0778
vn 0.0142 -0.9605 0.2780
vn -0.5823 0.8114 0.0510
vn -0.0000 1.0000 -0.0000
vn -0.1077 0.2311 -0.9670
vn -0.0251 0.1194 0.9925
vn -0.9741 0.0499 -0.2205
vn 0.9412 0.0351 -0.3361
vn -0.9900 0.1355 0.0399
vn -0.1434 -0.9143 -0.3788
vn -0.1450 0.9644 0.2213
vn 0.9637 0.1861 0.1916
vn 0.5477 -0.4865 -0.6806
vn 0.1077 -0.9940 0.0182
vn 0.0632 0.9967 0.0506
vn 0.9918 0.0636 0.1108
vn -0.8877 0.4579 0.0473
vn -0.0017 -0.9943 0.1064
vn -0.8734 0.4844 0.0514
vn 0.9161 0.4003 -0.0218
vn 0.8985 0.4354 -0.0551
vn -0.9928 0.0526 -0.1076
vn 0.1084 -0.8240 -0.5561
vn -0.6517 0.7370 -0.1795
vn 0.9919 0.0258 0.1243
vn -0.0840 0.9963 -0.0190
vn 0.0481 -0.9988 -0.0122
vn -0.9877 0.0626 0.1432
vt 0.625000 1.000000
vt 0.375000 1.000000
vt 0.375000 0.750000
vt 0.625000 0.750000
vt 0.375000 0.000000
vt 0.625000 0.000000
vt 0.625000 0.250000
vt 0.375000 0.250000
vt 0.125000 0.500000
vt 0.375000 0.500000
vt 0.125000 0.750000
vt 0.625000 0.500000
vt 0.375000 0.500000
vt 0.875000 0.500000
vt 0.875000 0.750000
vt 0.375000 0.250000
vt 0.625000 0.250000
vt 0.375000 0.500000
vt 0.875000 0.500000
vt 0.625000 0.500000
vt 0.375000 0.500000
vt 0.375000 0.250000
vt 0.625000 0.250000
s 0
usemtl Material.003
f 168/190/133 169/191/133 178/191/133 177/190/133
f 165/192/134 164/193/134 168/190/134 169/191/134
f 169/194/135 168/195/135 166/196/135 167/197/135
f 167/198/136 163/199/136 165/192/136 169/200/136
f 163/199/137 162/201/137 164/193/137 165/192/137
f 188/201/138 187/202/138 171/199/138 170/201/138
f 173/197/139 172/196/139 181/196/139 182/197/139
f 190/197/140 189/196/140 172/196/140 173/197/140
f 187/202/141 190/198/141 173/198/141 171/199/141
f 189/203/142 188/201/142 170/201/142 172/203/142
f 174/201/143 176/203/143 177/204/143 175/193/143
f 162/201/144 166/203/144 176/203/144 174/201/144
f 168/190/145 164/193/145 175/193/145 177/190/145
f 166/196/146 168/195/146 177/195/146 176/196/146
f 164/193/147 162/201/147 174/201/147 175/193/147
f 196/205/148 195/196/148 185/206/148 186/197/148
f 171/199/149 173/198/149 182/198/149 180/199/149
f 172/203/150 170/201/150 179/201/150 181/203/150
f 170/201/151 171/199/151 180/199/151 179/201/151
f 186/197/152 185/206/152 183/201/152 184/199/152
f 197/207/153 196/198/153 186/198/153 184/199/153
f 195/208/154 198/209/154 183/201/154 185/203/154
f 198/209/155 197/207/155 184/199/155 183/201/155
f 194/203/156 191/201/156 188/201/156 189/203/156
f 193/210/157 192/198/157 190/198/157 187/202/157
f 192/211/158 194/212/158 189/196/158 190/197/158
f 191/201/159 193/210/159 187/202/159 188/201/159
f 162/201/160 163/199/160 193/210/160 191/201/160
f 167/197/161 166/196/161 194/212/161 192/211/161
f 163/199/162 167/198/162 192/198/162 193/210/162
f 166/203/163 162/201/163 191/201/163 194/203/163
f 179/201/164 180/199/164 197/207/164 198/209/164
f 181/203/165 179/201/165 198/209/165 195/208/165
f 180/199/166 182/198/166 196/198/166 197/207/166
f 182/197/167 181/196/167 195/196/167 196/205/167
o Cube
v -0.528780 0.364049 0.452228
v -0.528780 0.421949 0.437806
v -0.566256 0.302602 -0.206296
v -0.488743 0.364049 0.452228
v -0.488743 0.421949 0.437806
v -0.451266 0.295389 -0.206227
v -0.542084 0.266839 0.137449
v -0.542084 0.369979 0.113377
v -0.475438 0.266839 0.137449
v -0.475438 0.369979 0.113377
v -0.542084 0.304134 0.297251
v -0.475438 0.407274 0.273180
v -0.542084 0.407274 0.273180
v -0.475438 0.304134 0.297251
v -0.553771 0.346146 -0.046553
v -0.463751 0.226466 -0.022324
v -0.553771 0.226466 -0.022324
v -0.463751 0.332684 -0.046425
v -0.528780 0.392999 0.445017
v -0.566256 0.242762 -0.194181
v -0.451266 0.243819 -0.194191
v -0.488743 0.392999 0.445017
v -0.475438 0.318409 0.125413
v -0.542084 0.318409 0.125413
v -0.542084 0.355704 0.285215
v -0.475438 0.355704 0.285215
v -0.463751 0.281114 -0.034389
v -0.553771 0.286306 -0.034439
v -0.566256 0.200162 -0.185557
v -0.558241 0.210878 -0.079507
v -0.459282 0.210878 -0.079507
v -0.451266 0.200175 -0.185502
vn -0.9972 0.0150 0.0739
vn -0.0054 -0.2118 -0.9773
vn 0.9967 0.0188 0.0787
vn -0.0000 0.2417 0.9704
vn -0.0000 -0.9327 0.3606
vn -0.0000 0.9961 -0.0888
vn 0.0843 0.9787 -0.1871
vn -0.0000 -0.9695 0.2450
vn 0.9975 0.0161 0.0692
vn -1.0000 -0.0000 -0.0000
vn -0.9967 0.0188 0.0787
vn -0.0000 0.9738 -0.2273
vn -0.0000 -0.9738 0.2273
vn 1.0000 -0.0000 -0.0000
vn 0.9971 0.0172 0.0739
vn 0.0975 0.9648 -0.2441
vn -0.9974 0.0152 0.0702
vn -0.9975 0.0151 0.0695
vn -0.9967 0.0188 0.0785
vn 0.9975 0.0157 0.0691
vn 0.9967 0.0188 0.0785
vn -0.0000 -0.9949 0.1005
vn 0.0011 -0.1968 -0.9804
vn -0.0000 -0.9648 0.2630
vn 0.9971 0.0156 0.0740
vt 0.500000 0.187500
vt 0.625000 0.187500
vt 0.625000 0.250000
vt 0.500000 0.250000
vt 0.625000 0.500000
vt 0.500000 0.500000
vt 0.500000 0.687500
vt 0.625000 0.687500
vt 0.625000 0.750000
vt 0.500000 0.750000
vt 0.625000 1.000000
vt 0.500000 1.000000
vt 0.125000 0.687500
vt 0.375000 0.687500
vt 0.375000 0.750000
vt 0.125000 0.750000
vt 0.875000 0.687500
vt 0.875000 0.750000
vt 0.625000 0.562500
vt 0.875000 0.562500
vt 0.875000 0.625000
vt 0.625000 0.625000
vt 0.125000 0.562500
vt 0.375000 0.562500
vt 0.375000 0.625000
vt 0.125000 0.625000
vt 0.500000 0.562500
vt 0.500000 0.625000
vt 0.500000 0.062500
vt 0.625000 0.062500
vt 0.625000 0.125000
vt 0.500000 0.125000
vt 0.500000 0.000000
vt 0.625000 0.000000
vt 0.875000 0.500000
vt 0.375000 0.125000
vt 0.375000 0.187500
vt 0.375000 0.000000
vt 0.375000 0.062500
vt 0.375000 1.000000
vt 0.375000 0.540127
vt 0.125000 0.540127
vt 0.125000 0.500000
vt 0.398609 0.500000
vt 0.411013 0.250000
vt 0.375000 0.209873
s 0
f 226/213/168 213/214/168 201/215/168 218/216/168
f 218/216/169 201/215/169 204/217/169 219/218/169
f 224/219/170 210/220/170 203/221/170 220/222/170
f 220/222/171 203/221/171 200/223/171 217/224/171
f 209/225/172 212/226/172 202/227/172 199/228/172
f 210/220/173 211/229/173 200/230/173 203/221/173
f 216/231/174 213/232/174 206/233/174 208/234/174
f 215/235/175 214/236/175 207/237/175 205/238/175
f 225/239/176 216/231/176 208/234/176 221/240/176
f 223/241/177 211/242/177 206/243/177 222/244/177
f 217/245/178 200/246/178 211/242/178 223/241/178
f 208/234/179 206/233/179 211/229/179 210/220/179
f 205/238/180 207/237/180 212/226/180 209/225/180
f 221/240/181 208/234/181 210/220/181 224/219/181
f 219/218/182 204/217/182 216/231/182 225/239/182
f 204/217/183 201/247/183 213/232/183 216/231/183
f 222/244/184 206/243/184 213/214/184 226/213/184
f 205/248/185 222/244/185 226/213/185 215/249/185
f 207/237/181 221/240/181 224/219/181 212/226/181
f 199/250/186 217/245/186 223/241/186 209/251/186
f 209/251/177 223/241/177 222/244/177 205/248/177
f 214/236/187 225/239/187 221/240/187 207/237/187
f 202/227/171 220/222/171 217/224/171 199/252/171
f 212/226/188 224/219/188 220/222/188 202/227/188
f 229/253/189 228/254/189 227/255/189 230/256/189
f 215/249/168 226/213/168 218/216/168 227/257/168 228/258/168
f 227/257/190 218/216/190 219/218/190 230/256/190
f 228/254/191 229/253/191 214/236/191 215/235/191
f 229/253/192 230/256/192 219/218/192 225/239/192 214/236/192
o Cube.009
v -0.515120 0.476290 0.452158
v -0.515120 0.324400 0.498239
v -0.515120 0.536298 0.649688
v -0.495673 0.403126 0.729174
v -0.476943 0.476290 0.452158
v -0.476943 0.324400 0.498239
v -0.476943 0.536298 0.649688
v -0.476174 0.403126 0.729174
v -0.521610 0.515652 0.581902
v -0.521610 0.363763 0.627983
v -0.492783 0.515652 0.581902
v -0.492783 0.363763 0.627983
v -0.536627 0.400345 0.475198
v -0.495673 0.469712 0.739606
v -0.476174 0.469712 0.739606
v -0.476943 0.400345 0.475198
v -0.492783 0.439708 0.604943
v -0.537850 0.439708 0.604943
v -0.515120 0.567442 0.543329
v -0.476943 0.352061 0.589410
v -0.515120 0.352061 0.589410
v -0.476943 0.567442 0.543329
v -0.536627 0.428005 0.566370
v -0.476943 0.428005 0.566370
vn -0.9508 -0.0819 0.2987
vn -0.0000 -0.1548 0.9879
vn 1.0000 -0.0000 -0.0000
vn -0.0000 -0.2903 -0.9569
vn -0.0000 0.7072 -0.7070
vn -0.0000 -0.9569 0.2903
vn -0.0000 -0.9320 0.3625
vn -0.0000 0.9566 -0.2914
vn 0.9906 -0.0120 -0.1360
vn -0.9687 -0.2473 -0.0218
vn -0.9853 0.1706 -0.0099
vn 0.9860 -0.1001 -0.1330
vn -0.0000 0.8036 0.5951
vn -0.9705 0.1361 0.1992
vn 0.9042 0.0894 0.4177
vn -0.9788 0.1716 -0.1118
vn -0.9652 -0.2503 0.0759
vn -0.0000 0.5973 0.8020
vn 0.9307 0.1062 0.3500
vt 0.500000 0.125000
vt 0.625000 0.125000
vt 0.625000 0.250000
vt 0.500000 0.250000
vt 0.625000 0.500000
vt 0.500000 0.500000
vt 0.500000 0.662162
vt 0.625000 0.662162
vt 0.625000 0.750000
vt 0.500000 0.750000
vt 0.625000 1.000000
vt 0.500000 1.000000
vt 0.125000 0.662162
vt 0.375000 0.662162
vt 0.375000 0.750000
vt 0.125000 0.750000
vt 0.875000 0.662162
vt 0.875000 0.750000
vt 0.875000 0.500000
vt 0.875000 0.625000
vt 0.625000 0.625000
vt 0.125000 0.500000
vt 0.375000 0.500000
vt 0.375000 0.625000
vt 0.125000 0.625000
vt 0.500000 0.625000
vt 0.500000 0.087838
vt 0.625000 0.087838
vt 0.375000 0.087838
vt 0.375000 0.125000
vt 0.375000 1.000000
vt 0.375000 0.250000
vt 0.375000 0.000000
vt 0.500000 0.000000
vt 0.625000 0.000000
s 0
f 248/259/193 240/260/193 234/261/193 244/262/193
f 244/262/194 234/261/194 238/263/194 245/264/194
f 254/265/195 250/266/195 236/267/195 246/268/195
f 246/268/196 236/267/196 232/269/196 243/270/196
f 249/271/197 252/272/197 235/273/197 231/274/197
f 250/266/198 251/275/198 232/276/198 236/267/198
f 238/263/199 234/277/199 240/278/199 242/279/199
f 233/280/200 237/281/200 241/282/200 239/283/200
f 245/264/201 238/263/201 242/279/201 247/284/201
f 253/285/202 251/286/202 240/260/202 248/259/202
f 249/287/203 253/285/203 248/259/203 239/288/203
f 237/281/204 245/264/204 247/284/204 241/282/204
f 235/273/196 246/268/196 243/270/196 231/289/196
f 252/272/195 254/265/195 246/268/195 235/273/195
f 233/290/205 244/262/205 245/264/205 237/281/205
f 239/288/206 248/259/206 244/262/206 233/290/206
f 241/282/207 247/284/207 254/265/207 252/272/207
f 231/291/208 243/292/208 253/285/208 249/287/208
f 243/292/209 232/293/209 251/286/209 253/285/209
f 242/279/198 240/278/198 251/275/198 250/266/198
f 239/283/210 241/282/210 252/272/210 249/271/210
f 247/284/211 242/279/211 250/266/211 254/265/211
o Cube.011
v 0.205050 0.509255 -1.846312
v 0.205050 -0.002486 -1.970818
v 0.122875 0.578246 -1.585389
v 0.217809 -0.026908 -1.613525
v -0.202771 0.575706 -1.807137
v -0.321298 -0.002486 -1.971252
v 0.020748 0.585641 -1.692557
v -0.285162 -0.050654 -1.569216
v 0.205050 0.162749 -1.997658
v 0.270933 0.282077 -1.668916
v -0.312602 0.265342 -1.659631
v -0.321298 0.162749 -1.998092
v 0.193688 0.532147 -1.798326
v 0.205050 -0.095427 -1.776865
v -0.194593 0.585434 -1.619079
v -0.417664 -0.095427 -1.777298
v -0.408969 0.265342 -1.784309
v 0.309165 0.265342 -1.784309
v 0.205050 0.059806 -2.024498
v 0.297959 0.129492 -1.590468
v -0.386998 0.129492 -1.590468
v -0.280483 0.059806 -2.024932
v -0.408969 0.129492 -1.784309
v 0.336191 0.129492 -1.784309
v 0.228477 0.401192 -1.590468
v -0.312602 0.430325 -1.502140
v -0.321298 0.362477 -1.917573
v 0.205050 0.362477 -1.917139
v 0.309165 0.398650 -1.749136
v -0.312602 0.401192 -1.784309
v 0.193688 0.522833 -1.724284
v -0.075322 -0.038103 -1.393818
v -0.044520 0.575706 -1.877170
v -0.044520 -0.002486 -2.078188
v -0.044520 0.162749 -2.105028
v -0.044520 -0.095427 -1.884235
v -0.098120 0.542599 -1.739072
v -0.044520 0.059806 -2.131868
v -0.044520 0.362477 -2.024509
v 0.170237 0.512652 -1.545522
v 0.146556 0.545449 -1.565455
v 0.080265 -0.002486 -2.024503
v 0.080265 0.162749 -2.051343
v 0.049354 0.558791 -1.811155
v 0.080265 0.059806 -2.078183
v 0.080265 0.362477 -1.970824
v 0.098037 -0.035789 -1.531880
v 0.080265 0.528798 -1.899997
v 0.080265 -0.095427 -1.830549
v 0.107218 0.554237 -1.745630
v -0.164841 -0.095288 -1.513396
v -0.123645 0.575706 -1.880410
v -0.182909 -0.095427 -1.830766
v -0.182909 -0.002486 -2.024720
v -0.182909 0.162749 -2.051560
v -0.144786 0.585434 -1.721532
v -0.182909 0.059806 -2.078400
v -0.182909 0.362477 -1.971041
v -0.059797 -0.111611 -1.656230
v -0.151306 -0.138181 -1.646040
v 0.059490 -0.108342 -1.680708
v 0.157778 -0.105533 -1.698843
v -0.290661 -0.113815 -1.663680
vn 0.8354 -0.5226 0.1704
vn -0.8880 0.0566 -0.4564
vn 0.3099 -0.6207 -0.7203
vn -0.0801 0.9950 -0.0588
vn 0.1828 -0.8866 -0.4249
vn 0.3706 0.3473 -0.8614
vn -0.8807 0.3336 -0.3362
vn 0.9164 -0.0257 0.3994
vn 0.8340 0.1811 -0.5213
vn -0.9574 0.1953 0.2128
vn 0.2511 -0.8579 0.4482
vn 0.2446 0.9696 -0.0051
vn -0.8763 -0.2689 0.3998
vn 0.8492 -0.4474 -0.2805
vn 0.8524 0.1527 -0.5001
vn -0.8861 0.3264 0.3292
vn 0.3843 0.2329 -0.8933
vn -0.9132 -0.1120 -0.3919
vn 0.9459 0.2374 0.2210
vn 0.4967 0.8676 0.0239
vn 0.8128 0.3697 -0.4501
vn -0.8479 0.5290 -0.0352
vn 0.3906 0.3795 -0.8387
vn -0.1951 0.4985 -0.8447
vn -0.3502 0.2363 -0.9064
vn 0.2516 -0.9232 0.2905
vn -0.3373 0.3520 -0.8731
vn -0.1647 -0.8895 -0.4262
vn 0.1337 0.9890 0.0633
vn -0.2809 -0.6265 -0.7270
vn 0.7381 0.6695 0.0842
vn 0.2307 0.9294 -0.2880
vn 0.1969 0.4886 -0.8500
vn 0.4559 0.8726 -0.1753
vn -0.0625 0.9701 -0.2347
vn 0.1946 -0.9277 0.3186
vn -0.3461 -0.5448 -0.7638
vn -0.1303 -0.8811 -0.4546
vn -0.3377 -0.8574 0.3884
vn -0.4079 0.1538 -0.9000
vn -0.4284 0.5253 -0.7352
vn 0.3343 0.9292 0.1573
vn 0.0742 -0.9868 -0.1439
vn -0.0794 -0.9840 -0.1595
vn 0.0273 -0.9953 -0.0924
vn 0.0223 -0.9970 -0.0747
vn 0.0090 0.2832 0.9590
vt 0.562500 0.125000
vt 0.625000 0.125000
vt 0.625000 0.184708
vt 0.625000 0.250000
vt 0.562500 0.250000
vt 0.562500 0.625000
vt 0.625000 0.625000
vt 0.625000 0.750000
vt 0.562500 0.750000
vt 0.562500 0.937500
vt 0.625000 0.937500
vt 0.625000 1.000000
vt 0.562500 1.000000
vt 0.312500 0.625000
vt 0.375000 0.625000
vt 0.375000 0.750000
vt 0.312500 0.750000
vt 0.812500 0.625000
vt 0.875000 0.625000
vt 0.875000 0.750000
vt 0.812500 0.750000
vt 0.437500 0.937500
vt 0.500000 0.937500
vt 0.500000 1.000000
vt 0.437500 1.000000
vt 0.437500 0.625000
vt 0.500000 0.625000
vt 0.500000 0.750000
vt 0.437500 0.750000
vt 0.437500 0.125000
vt 0.500000 0.125000
vt 0.500000 0.250000
vt 0.437500 0.250000
vt 0.437500 0.000000
vt 0.500000 0.000000
vt 0.437500 0.500000
vt 0.500000 0.500000
vt 0.812500 0.500000
vt 0.875000 0.500000
vt 0.875000 0.565292
vt 0.812500 0.562288
vt 0.187500 0.625000
vt 0.125000 0.625000
vt 0.187500 0.625000
vt 0.562500 0.500000
vt 0.625000 0.500000
vt 0.625000 0.556746
vt 0.562500 0.000000
vt 0.625000 0.000000
vt 0.187500 0.625000
vt 0.375000 0.000000
vt 0.375000 0.125000
vt 0.375000 0.937500
vt 0.375000 1.000000
vt 0.375000 0.812500
vt 0.437500 0.812500
vt 0.437500 0.875000
vt 0.375000 0.875000
vt 0.500000 0.812500
vt 0.562500 0.812500
vt 0.562500 0.875000
vt 0.500000 0.875000
vt 0.687500 0.500000
vt 0.750000 0.500000
vt 0.750000 0.566885
vt 0.687500 0.552243
vt 0.687500 0.625000
vt 0.750000 0.625000
vt 0.750000 0.750000
vt 0.687500 0.750000
vt 0.250000 0.625000
vt 0.250000 0.750000
vt 0.187500 0.750000
vt 0.625000 0.812500
vt 0.625000 0.875000
vt 0.125000 0.750000
vt 0.000000 0.000000
s 0
f 278/294/212 274/298/212 258/297/212 316/296/212 268/295/212
f 277/299/213 276/302/213 260/301/213 270/300/213
f 299/303/214 273/306/214 256/305/214 296/304/214
f 310/307/215 306/310/215 259/309/215 269/308/215
f 303/311/216 296/314/216 256/313/216 268/312/216
f 300/315/217 282/318/217 263/317/217 297/316/217
f 284/319/218 281/322/218 266/321/218 271/320/218
f 283/323/219 279/326/219 264/325/219 272/324/219
f 282/327/220 283/323/220 272/324/220 263/328/220
f 280/329/221 284/319/221 271/320/221 265/330/221
f 301/331/222 315/334/222 316/333/222 258/332/222
f 298/335/223 304/337/223 285/336/223 267/336/223
f 275/338/224 277/299/224 270/300/224 317/340/224 262/339/224
f 273/341/225 278/294/225 268/295/225 256/342/225
f 263/328/226 272/324/226 278/294/226 273/341/226
f 265/330/227 271/320/227 277/299/227 275/338/227
f 297/316/228 263/317/228 273/306/228 299/303/228
f 271/320/229 266/321/229 276/302/229 277/299/229
f 272/324/230 264/325/230 274/298/230 278/294/230
f 304/337/231 295/343/231 294/336/231 285/336/231
f 255/344/232 267/345/232 283/323/232 282/327/232
f 269/308/233 259/309/233 281/322/233 284/319/233
f 302/346/234 255/347/234 282/318/234 300/315/234
f 306/348/235 287/351/235 293/350/235 312/349/235
f 309/352/236 289/355/236 292/354/236 311/353/236
f 305/356/237 314/359/237 313/358/237 286/357/237
f 312/349/238 293/350/238 289/355/238 309/352/238
f 307/360/239 308/363/239 288/362/239 290/361/239
f 298/335/240 302/366/240 287/365/240 291/364/240
f 311/353/241 292/354/241 288/368/241 308/367/241
f 267/336/242 285/336/242 283/323/242
f 267/336/243 255/369/243 302/366/243 298/335/243
f 287/351/244 302/346/244 300/315/244 293/350/244
f 261/364/245 257/364/245 295/343/245 304/337/245
f 289/355/228 297/316/228 299/303/228 292/354/228
f 291/364/246 261/364/246 304/337/246 298/335/246
f 286/357/247 313/358/247 315/334/247 301/331/247
f 293/350/217 300/315/217 297/316/217 289/355/217
f 290/361/216 288/362/216 296/314/216 303/311/216
f 292/354/214 299/303/214 296/304/214 288/368/214
f 276/302/248 311/353/248 308/367/248 260/301/248
f 270/300/249 260/301/249 308/363/249 307/360/249
f 281/322/238 312/349/238 309/352/238 266/321/238
f 262/339/250 317/340/250 314/359/250 305/356/250
f 266/321/251 309/352/251 311/353/251 276/302/251
f 259/309/252 306/348/252 312/349/252 281/322/252
f 291/364/253 287/365/253 306/310/253 310/307/253
f 314/359/254 307/360/254 290/361/254 313/358/254
f 317/340/255 270/300/255 307/360/255 314/359/255
f 315/334/256 303/311/256 268/312/256 316/333/256
f 313/358/257 290/361/257 303/311/257 315/334/257
f 271/370/258 277/370/258 270/370/258 317/370/258 314/370/258 313/370/258 315/370/258 316/370/258 268/370/258 278/370/258 272/370/258 282/370/258 255/370/258 302/370/258 287/370/258 306/370/258 259/370/258 281/370/258
o Cube.004
v 0.126374 0.434745 2.265626
v 0.040626 0.275215 2.295309
v 0.054224 0.393141 2.436677
v -0.000373 0.188372 2.441525
v 0.172463 0.434745 2.272499
v 0.172463 0.233611 2.312718
v 0.209044 0.393141 2.434831
v 0.234983 0.268552 2.439680
v 0.123402 0.430635 1.298061
v 0.037655 0.118688 1.391336
v 0.211953 0.385059 1.313796
v 0.274426 0.118688 1.411329
v 0.105706 0.671232 2.321575
v 0.085592 0.671232 2.404502
v 0.170384 0.671232 2.327037
v 0.189158 0.671232 2.399821
v 0.189158 0.520734 2.399821
v 0.047534 0.455708 1.113689
v 0.047534 0.192115 1.148174
v 0.218458 0.446184 1.168056
v 0.218458 0.192115 1.282548
v -0.044085 0.446862 0.225695
v -0.044085 0.206925 0.435874
v 0.256463 0.521481 -0.030852
v 0.329812 0.155905 0.132787
v 0.063060 0.267622 1.915020
v 0.124888 0.417398 1.793280
v 0.160972 0.371822 1.804584
v 0.200416 0.267622 1.914124
v 0.125631 0.417050 2.029796
v 0.174925 0.301530 2.230136
v 0.063803 0.301530 2.233248
v 0.135482 0.371474 2.038885
v 0.261847 0.433140 0.877857
v 0.261847 0.183807 0.983523
v 0.028019 0.204633 1.010143
v 0.028019 0.457853 0.937136
vn -0.9687 -0.0873 0.2323
vn 0.0035 0.0291 0.9996
vn 0.9458 0.0306 -0.3233
vn 0.1106 -0.9748 -0.1939
vn -0.9217 0.3369 -0.1923
vn -0.9544 0.2983 -0.0145
vn 0.9871 0.0575 -0.1497
vn 0.9493 0.3046 0.0778
vn -0.0142 -0.9605 0.2780
vn 0.5823 0.8114 0.0510
vn -0.0000 1.0000 -0.0000
vn 0.1077 0.2311 -0.9670
vn 0.0251 0.1194 0.9925
vn 0.9741 0.0499 -0.2205
vn -0.9412 0.0351 -0.3361
vn 0.9900 0.1355 0.0399
vn 0.1434 -0.9143 -0.3788
vn 0.1450 0.9644 0.2213
vn -0.9637 0.1861 0.1916
vn -0.5477 -0.4865 -0.6806
vn -0.1077 -0.9940 0.0182
vn -0.0632 0.9967 0.0506
vn -0.9918 0.0636 0.1108
vn 0.8877 0.4579 0.0473
vn 0.0017 -0.9943 0.1064
vn 0.8734 0.4844 0.0514
vn -0.9161 0.4003 -0.0218
vn -0.8985 0.4354 -0.0551
vn 0.9928 0.0526 -0.1076
vn -0.1084 -0.8240 -0.5561
vn 0.6517 0.7370 -0.1795
vn -0.9919 0.0258 0.1243
vn 0.0840 0.9963 -0.0190
vn -0.0481 -0.9988 -0.0122
vn 0.9877 0.0626 0.1432
vt 0.625000 1.000000
vt 0.375000 1.000000
vt 0.375000 0.750000
vt 0.625000 0.750000
vt 0.375000 0.000000
vt 0.625000 0.000000
vt 0.625000 0.250000
vt 0.375000 0.250000
vt 0.125000 0.500000
vt 0.375000 0.500000
vt 0.125000 0.750000
vt 0.625000 0.500000
vt 0.375000 0.500000
vt 0.875000 0.500000
vt 0.875000 0.750000
vt 0.375000 0.250000
vt 0.625000 0.250000
vt 0.375000 0.500000
vt 0.875000 0.500000
vt 0.625000 0.500000
vt 0.375000 0.500000
vt 0.375000 0.250000
vt 0.625000 0.250000
s 0
usemtl Material.001
f 324/371/259 333/371/259 334/372/259 325/372/259
f 321/373/260 325/372/260 324/371/260 320/374/260
f 325/375/261 323/378/261 322/377/261 324/376/261
f 323/379/262 325/381/262 321/373/262 319/380/262
f 319/380/263 321/373/263 320/374/263 318/382/263
f 344/382/264 326/382/264 327/380/264 343/383/264
f 329/378/265 338/378/265 337/377/265 328/377/265
f 346/378/266 329/378/266 328/377/266 345/377/266
f 343/383/267 327/380/267 329/379/267 346/379/267
f 345/384/268 328/384/268 326/382/268 344/382/268
f 330/382/269 331/374/269 333/385/269 332/384/269
f 318/382/270 330/382/270 332/384/270 322/384/270
f 324/371/271 333/371/271 331/374/271 320/374/271
f 322/377/272 332/377/272 333/376/272 324/376/272
f 320/374/273 331/374/273 330/382/273 318/382/273
f 352/386/274 342/378/274 341/387/274 351/377/274
f 327/380/275 336/380/275 338/379/275 329/379/275
f 328/384/276 337/384/276 335/382/276 326/382/276
f 326/382/277 335/382/277 336/380/277 327/380/277
f 342/378/278 340/380/278 339/382/278 341/387/278
f 353/388/279 340/380/279 342/379/279 352/379/279
f 351/389/280 341/384/280 339/382/280 354/390/280
f 354/390/281 339/382/281 340/380/281 353/388/281
f 350/384/282 345/384/282 344/382/282 347/382/282
f 349/391/283 343/383/283 346/379/283 348/379/283
f 348/392/284 346/378/284 345/377/284 350/393/284
f 347/382/285 344/382/285 343/383/285 349/391/285
f 318/382/286 347/382/286 349/391/286 319/380/286
f 323/378/287 348/392/287 350/393/287 322/377/287
f 319/380/288 349/391/288 348/379/288 323/379/288
f 322/384/289 350/384/289 347/382/289 318/382/289
f 335/382/290 354/390/290 353/388/290 336/380/290
f 337/384/291 351/389/291 354/390/291 335/382/291
f 336/380/292 353/388/292 352/379/292 338/379/292
f 338/378/293 352/386/293 351/377/293 337/377/293
o Cube.008
v 0.434124 0.476290 0.452158
v 0.434124 0.324400 0.498239
v 0.434124 0.536298 0.649688
v 0.414677 0.403126 0.729174
v 0.395948 0.476290 0.452158
v 0.395948 0.324400 0.498239
v 0.395948 0.536298 0.649688
v 0.395179 0.403126 0.729174
v 0.440614 0.515652 0.581902
v 0.440614 0.363763 0.627983
v 0.411787 0.515652 0.581902
v 0.411787 0.363763 0.627983
v 0.455631 0.400345 0.475198
v 0.414677 0.469712 0.739606
v 0.395179 0.469712 0.739606
v 0.395948 0.400345 0.475198
v 0.411787 0.439708 0.604943
v 0.456854 0.439708 0.604943
v 0.434124 0.567442 0.543329
v 0.395948 0.352061 0.589410
v 0.434124 0.352061 0.589410
v 0.395948 0.567442 0.543329
v 0.455631 0.428005 0.566370
v 0.395948 0.428005 0.566370
vn 0.9508 -0.0819 0.2987
vn -0.0000 -0.1548 0.9879
vn -1.0000 -0.0000 -0.0000
vn -0.0000 -0.2903 -0.9569
vn -0.0000 0.7072 -0.7070
vn -0.0000 -0.9569 0.2903
vn -0.0000 -0.9320 0.3625
vn -0.0000 0.9566 -0.2914
vn -0.9906 -0.0120 -0.1360
vn 0.9687 -0.2473 -0.0218
vn 0.9853 0.1706 -0.0099
vn -0.9860 -0.1001 -0.1330
vn -0.0000 0.8036 0.5951
vn 0.9705 0.1361 0.1992
vn -0.9042 0.0894 0.4177
vn 0.9788 0.1716 -0.1118
vn 0.9652 -0.2503 0.0759
vn -0.0000 0.5973 0.8020
vn -0.9307 0.1062 0.3500
vt 0.500000 0.125000
vt 0.625000 0.125000
vt 0.625000 0.250000
vt 0.500000 0.250000
vt 0.625000 0.500000
vt 0.500000 0.500000
vt 0.500000 0.662162
vt 0.625000 0.662162
vt 0.625000 0.750000
vt 0.500000 0.750000
vt 0.625000 1.000000
vt 0.500000 1.000000
vt 0.125000 0.662162
vt 0.375000 0.662162
vt 0.375000 0.750000
vt 0.125000 0.750000
vt 0.875000 0.662162
vt 0.875000 0.750000
vt 0.875000 0.500000
vt 0.875000 0.625000
vt 0.625000 0.625000
vt 0.125000 0.500000
vt 0.375000 0.500000
vt 0.375000 0.625000
vt 0.125000 0.625000
vt 0.500000 0.625000
vt 0.500000 0.087838
vt 0.625000 0.087838
vt 0.375000 0.087838
vt 0.375000 0.125000
vt 0.375000 1.000000
vt 0.375000 0.250000
vt 0.375000 0.000000
vt 0.500000 0.000000
vt 0.625000 0.000000
s 0
f 372/394/294 368/397/294 358/396/294 364/395/294
f 368/397/295 369/399/295 362/398/295 358/396/295
f 378/400/296 370/403/296 360/402/296 374/401/296
f 370/403/297 367/405/297 356/404/297 360/402/297
f 373/406/298 355/409/298 359/408/298 376/407/298
f 374/401/299 360/402/299 356/411/299 375/410/299
f 362/398/300 366/414/300 364/413/300 358/412/300
f 357/415/301 363/418/301 365/417/301 361/416/301
f 369/399/302 371/419/302 366/414/302 362/398/302
f 377/420/303 372/394/303 364/395/303 375/421/303
f 373/422/304 363/423/304 372/394/304 377/420/304
f 361/416/305 365/417/305 371/419/305 369/399/305
f 359/408/297 355/424/297 367/405/297 370/403/297
f 376/407/296 359/408/296 370/403/296 378/400/296
f 357/425/306 361/416/306 369/399/306 368/397/306
f 363/423/307 357/425/307 368/397/307 372/394/307
f 365/417/308 376/407/308 378/400/308 371/419/308
f 355/426/309 373/422/309 377/420/309 367/427/309
f 367/427/310 377/420/310 375/421/310 356/428/310
f 366/414/299 374/401/299 375/410/299 364/413/299
f 363/418/311 373/406/311 376/407/311 365/417/311
f 371/419/312 378/400/312 374/401/312 366/414/312
o Cube.010
v 0.490118 0.180547 -0.288919
v 0.468052 0.316515 -0.233807
v 0.502537 0.168746 -0.986657
v 0.502537 0.417682 -0.964286
v 0.350437 0.180547 -0.288919
v 0.372503 0.316515 -0.233807
v 0.350437 0.198394 -0.887108
v 0.350437 0.373809 -0.871344
v 0.490118 0.166021 -0.526869
v 0.468052 0.341435 -0.511105
v 0.350437 0.166021 -0.526869
v 0.372503 0.341435 -0.511105
v 0.468052 0.357622 -0.691225
v 0.350437 0.182207 -0.706989
v 0.490118 0.182207 -0.706989
v 0.372503 0.357622 -0.691225
v 0.490118 0.195316 -0.453264
v 0.372503 0.331285 -0.398152
v 0.468052 0.331285 -0.398152
v 0.350437 0.194243 -0.441323
v 0.490118 0.365716 -0.781284
v 0.350437 0.190301 -0.797048
v 0.490118 0.190301 -0.797048
v 0.350437 0.365716 -0.781284
v 0.490118 0.228808 -0.241689
v 0.553022 0.290208 -0.942014
v 0.350437 0.286102 -0.879226
v 0.350437 0.228808 -0.241689
v 0.350437 0.253728 -0.518987
v 0.490118 0.253728 -0.518987
v 0.350437 0.269915 -0.699107
v 0.535920 0.269915 -0.699107
v 0.490118 0.243577 -0.406034
v 0.350437 0.237541 -0.338868
v 0.350437 0.278008 -0.789166
v 0.535920 0.278008 -0.789166
vn 0.8974 0.4121 0.1576
vn -0.3803 -0.1503 -0.9126
vn -0.9700 0.2421 0.0218
vn -0.0000 -0.0895 0.9960
vn -0.0000 -0.9960 -0.0895
vn -0.0000 0.9960 0.0895
vn 0.9700 0.2421 0.0218
vn -0.9850 0.1122 0.1308
vn 0.8850 0.4401 0.1521
vn 0.0181 -0.9403 0.3398
vn -0.0794 0.9743 0.2107
vn -0.0861 -0.9953 0.0441
vn -1.0000 -0.0000 -0.0000
vn 0.8358 0.5282 0.1499
vn 0.8872 -0.4596 -0.0413
vn 1.0000 -0.0000 -0.0000
vn 0.9606 -0.2597 0.0988
vn -0.0000 -0.6994 0.7147
vn -0.3771 0.3102 -0.8727
vn 0.8961 -0.4349 0.0891
vt 0.500000 0.218750
vt 0.625000 0.218750
vt 0.625000 0.250000
vt 0.500000 0.250000
vt 0.625000 0.500000
vt 0.500000 0.500000
vt 0.500000 0.687500
vt 0.625000 0.687500
vt 0.625000 0.750000
vt 0.500000 0.750000
vt 0.625000 1.000000
vt 0.500000 1.000000
vt 0.125000 0.687500
vt 0.375000 0.687500
vt 0.375000 0.750000
vt 0.125000 0.750000
vt 0.875000 0.687500
vt 0.875000 0.750000
vt 0.625000 0.562500
vt 0.875000 0.562500
vt 0.875000 0.625000
vt 0.625000 0.625000
vt 0.125000 0.562500
vt 0.375000 0.562500
vt 0.375000 0.625000
vt 0.125000 0.625000
vt 0.500000 0.562500
vt 0.500000 0.625000
vt 0.500000 0.062500
vt 0.625000 0.062500
vt 0.625000 0.125000
vt 0.500000 0.125000
vt 0.500000 0.531250
vt 0.625000 0.531250
vt 0.125000 0.531250
vt 0.375000 0.531250
vt 0.875000 0.531250
vt 0.625000 0.187500
vt 0.500000 0.187500
vt 0.500000 0.000000
vt 0.625000 0.000000
vt 0.875000 0.500000
vt 0.125000 0.500000
vt 0.375000 0.500000
vt 0.375000 0.187500
vt 0.375000 0.218750
vt 0.375000 0.000000
vt 0.375000 0.062500
vt 0.375000 0.125000
vt 0.375000 1.000000
vt 0.375000 0.250000
s 0
f 414/429/313 404/432/313 382/431/313 399/430/313
f 404/432/314 405/434/314 386/433/314 382/431/314
f 412/435/315 406/438/315 384/437/315 396/436/315
f 406/438/316 403/440/316 380/439/316 384/437/316
f 395/441/317 379/444/317 383/443/317 398/442/317
f 396/436/318 384/437/318 380/446/318 397/445/318
f 394/447/318 390/450/318 388/449/318 391/448/318
f 393/451/317 387/454/317 389/453/317 392/452/317
f 409/455/315 407/456/315 390/450/315 394/447/315
f 411/457/319 408/460/319 388/459/319 397/458/319
f 413/461/320 409/455/320 394/447/320 402/462/320
f 401/463/317 393/451/317 392/452/317 400/464/317
f 402/462/318 394/447/318 391/448/318 399/465/318
f 408/460/321 410/467/321 391/466/321 388/459/321
f 403/468/319 411/457/319 397/458/319 380/469/319
f 390/450/318 396/436/318 397/445/318 388/449/318
f 387/454/322 395/441/322 398/442/322 389/453/322
f 407/456/315 412/435/315 396/436/315 390/450/315
f 386/433/323 402/462/323 399/465/323 382/470/323
f 381/471/324 401/463/324 400/464/324 385/472/324
f 405/434/325 413/461/325 402/462/325 386/433/325
f 410/467/326 414/429/326 399/430/326 391/466/326
f 393/473/327 401/474/327 414/429/327 410/467/327
f 385/472/325 400/464/325 413/461/325 405/434/325
f 389/453/325 398/442/325 412/435/325 407/456/325
f 379/475/328 395/476/328 411/457/328 403/468/328
f 387/477/329 393/473/329 410/467/329 408/460/329
f 400/464/325 392/452/325 409/455/325 413/461/325
f 395/476/328 387/477/328 408/460/328 411/457/328
f 392/452/325 389/453/325 407/456/325 409/455/325
f 383/443/330 379/478/330 403/440/330 406/438/330
f 398/442/325 383/443/325 406/438/325 412/435/325
f 381/479/331 385/472/331 405/434/331 404/432/331
f 401/474/332 381/479/332 404/432/332 414/429/332
o Cube.012
v 0.447784 0.364049 0.452228
v 0.447784 0.421949 0.437806
v 0.485261 0.302602 -0.206296
v 0.407747 0.364049 0.452228
v 0.407747 0.421949 0.437806
v 0.370270 0.295389 -0.206227
v 0.461089 0.266839 0.137449
v 0.461089 0.369979 0.113377
v 0.394442 0.266839 0.137449
v 0.394442 0.369979 0.113377
v 0.461089 0.304134 0.297251
v 0.394442 0.407274 0.273180
v 0.461089 0.407274 0.273180
v 0.394442 0.304134 0.297251
v 0.472776 0.346146 -0.046553
v 0.382755 0.226466 -0.022324
v 0.472776 0.226466 -0.022324
v 0.382755 0.332684 -0.046425
v 0.447784 0.392999 0.445017
v 0.485261 0.242762 -0.194181
v 0.370270 0.243819 -0.194191
v 0.407747 0.392999 0.445017
v 0.394442 0.318409 0.125413
v 0.461089 0.318409 0.125413
v 0.461089 0.355704 0.285215
v 0.394442 0.355704 0.285215
v 0.382755 0.281114 -0.034389
v 0.472776 0.286306 -0.034439
v 0.485261 0.200162 -0.185557
v 0.477245 0.210878 -0.079507
v 0.378286 0.210878 -0.079507
v 0.370270 0.200175 -0.185502
vn 0.9972 0.0150 0.0739
vn 0.0054 -0.2118 -0.9773
vn -0.9967 0.0188 0.0787
vn -0.0000 0.2417 0.9704
vn -0.0000 -0.9327 0.3606
vn -0.0000 0.9961 -0.0888
vn -0.0843 0.9787 -0.1871
vn -0.0000 -0.9695 0.2450
vn -0.9975 0.0161 0.0692
vn 1.0000 -0.0000 -0.0000
vn 0.9967 0.0188 0.0787
vn -0.0000 0.9738 -0.2273
vn -0.0000 -0.9738 0.2273
vn -1.0000 -0.0000 -0.0000
vn -0.9971 0.0172 0.0739
vn -0.0975 0.9648 -0.2441
vn 0.9974 0.0152 0.0702
vn 0.9975 0.0151 0.0695
vn 0.9967 0.0188 0.0785
vn -0.9975 0.0157 0.0691
vn -0.9967 0.0188 0.0785
vn -0.0000 -0.9949 0.1005
vn -0.0011 -0.1968 -0.9804
vn -0.0000 -0.9648 0.2630
vn -0.9971 0.0156 0.0740
vt 0.500000 0.187500
vt 0.625000 0.187500
vt 0.625000 0.250000
vt 0.500000 0.250000
vt 0.625000 0.500000
vt 0.500000 0.500000
vt 0.500000 0.687500
vt 0.625000 0.687500
vt 0.625000 0.750000
vt 0.500000 0.750000
vt 0.625000 1.000000
vt 0.500000 1.000000
vt 0.125000 0.687500
vt 0.375000 0.687500
vt 0.375000 0.750000
vt 0.125000 0.750000
vt 0.875000 0.687500
vt 0.875000 0.750000
vt 0.625000 0.562500
vt 0.875000 0.562500
vt 0.875000 0.625000
vt 0.625000 0.625000
vt 0.125000 0.562500
vt 0.375000 0.562500
vt 0.375000 0.625000
vt 0.125000 0.625000
vt 0.500000 0.562500
vt 0.500000 0.625000
vt 0.500000 0.062500
vt 0.625000 0.062500
vt 0.625000 0.125000
vt 0.500000 0.125000
vt 0.500000 0.000000
vt 0.625000 0.000000
vt 0.875000 0.500000
vt 0.375000 0.125000
vt 0.375000 0.187500
vt 0.375000 0.000000
vt 0.375000 0.062500
vt 0.375000 1.000000
vt 0.375000 0.540127
vt 0.125000 0.540127
vt 0.125000 0.500000
vt 0.398609 0.500000
vt 0.411013 0.250000
vt 0.375000 0.209873
s 0
f 442/480/333 434/483/333 417/482/333 429/481/333
f 434/483/334 435/485/334 420/484/334 417/482/334
f 440/486/335 436/489/335 419/488/335 426/487/335
f 436/489/336 433/491/336 416/490/336 419/488/336
f 425/492/337 415/495/337 418/494/337 428/493/337
f 426/487/338 419/488/338 416/497/338 427/496/338
f 432/498/339 424/501/339 422/500/339 429/499/339
f 431/502/340 421/505/340 423/504/340 430/503/340
f 441/506/341 437/507/341 424/501/341 432/498/341
f 439/508/342 438/511/342 422/510/342 427/509/342
f 433/512/343 439/508/343 427/509/343 416/513/343
f 424/501/344 426/487/344 427/496/344 422/500/344
f 421/505/345 425/492/345 428/493/345 423/504/345
f 437/507/346 440/486/346 426/487/346 424/501/346
f 435/485/347 441/506/347 432/498/347 420/484/347
f 420/484/348 432/498/348 429/499/348 417/514/348
f 438/511/349 442/480/349 429/481/349 422/510/349
f 421/515/350 431/516/350 442/480/350 438/511/350
f 423/504/346 428/493/346 440/486/346 437/507/346
f 415/517/351 425/518/351 439/508/351 433/512/351
f 425/518/342 421/515/342 438/511/342 439/508/342
f 430/503/352 423/504/352 437/507/352 441/506/352
f 418/494/336 415/519/336 433/491/336 436/489/336
f 428/493/353 418/494/353 436/489/353 440/486/353
f 445/520/354 446/523/354 443/522/354 444/521/354
f 431/516/333 444/525/333 443/524/333 434/483/333 442/480/333
f 443/524/355 446/523/355 435/485/355 434/483/355
f 444/521/356 431/502/356 430/503/356 445/520/356
f 445/520/357 430/503/357 441/506/357 435/485/357 446/523/357
